{"accessors":[{"bufferView":0,"componentType":5125,"count":261747,"type":"SCALAR"},{"bufferView":1,"componentType":5126,"count":261747,"max":[2.54792737960815,1.41199481487274,7.19033479690552],"min":[-2.6858434677124,-1.68263614177704,-3.47361373901367],"type":"VEC3"},{"bufferView":2,"componentType":5126,"count":261747,"type":"VEC2"}],"asset":{"generator":"ply_to_gltf","version":"2.0"},"bufferViews":[{"buffer":0,"byteLength":1046988,"target":34963},{"buffer":0,"byteLength":3140964,"byteOffset":1046988,"target":34962},{"buffer":0,"byteLength":2093976,"byteOffset":4187952,"target":34962}],"buffers":[{"byteLength":6281928,"uri":"map_4b653b41-43a0-4fcb-84e4-7341b93d5ed6_densified_mesh_textured_lod0.bin"}],"images":[{"uri":"map_4b653b41-43a0-4fcb-84e4-7341b93d5ed6_densified_mesh_textured_8192.jpg"}],"materials":[{"pbrMetallicRoughness":{"baseColorTexture":{"index":0}}}],"meshes":[{"primitives":[{"attributes":{"POSITION":1,"TEXCOORD_0":2},"indices":0,"material":0,"mode":4}]}],"nodes":[{"mesh":0}],"samplers":[{"magFilter":9728,"minFilter":9728,"wrapR":10497,"wrapS":33071,"wrapT":33071}],"scene":0,"scenes":[{"nodes":[0]}],"textures":[{"sampler":0,"source":0}]}
